<svg width="28" height="28" viewBox="0 0 28 28" fill="none" xmlns="http://www.w3.org/2000/svg">
<g filter="url(#filter0_d_270_94)">
<path fill-rule="evenodd" clip-rule="evenodd" d="M14.8036 20.8304V23.6429C14.8036 23.8401 14.6437 24 14.4464 24H13.5536C13.3563 24 13.1964 23.8401 13.1964 23.6429V20.8304C13.5501 20.867 13.818 20.8854 14 20.8854C14.182 20.8854 14.4499 20.867 14.8036 20.8304ZM19.3851 18.2487L21.3738 20.2374C21.5133 20.3769 21.5133 20.603 21.3738 20.7425L20.7425 21.3738C20.603 21.5133 20.3769 21.5133 20.2374 21.3738L18.2487 19.385C18.5247 19.1609 18.727 18.9844 18.8558 18.8557C18.9845 18.727 19.1609 18.5246 19.3851 18.2486M8.61493 18.2486C8.83911 18.5246 9.01554 18.727 9.14424 18.8557C9.27297 18.9844 9.47534 19.1609 9.75134 19.385L7.76261 21.3738C7.62315 21.5133 7.39699 21.5133 7.25754 21.3738L6.62618 20.7424C6.48672 20.603 6.48672 20.3768 6.62618 20.2374L8.61493 18.2486ZM14 8.77679C16.8847 8.77679 19.2232 11.1153 19.2232 14C19.2232 16.8847 16.8847 19.2232 14 19.2232C11.1153 19.2232 8.77679 16.8847 8.77679 14C8.77679 11.1153 11.1153 8.77679 14 8.77679ZM14 10.3839C12.0029 10.3839 10.3839 12.0029 10.3839 14C10.3839 15.9971 12.0029 17.6161 14 17.6161C15.9971 17.6161 17.6161 15.9971 17.6161 14C17.6161 12.0029 15.9971 10.3839 14 10.3839ZM7.16964 13.1964C7.13297 13.5501 7.11464 13.818 7.11464 14C7.11464 14.182 7.13297 14.4499 7.16964 14.8036H4.35714C4.15989 14.8036 4 14.6437 4 14.4464V13.5536C4 13.3563 4.15989 13.1964 4.35714 13.1964H7.16964ZM23.6429 13.1964C23.8401 13.1964 24 13.3563 24 13.5536V14.4464C24 14.6437 23.8401 14.8036 23.6429 14.8036H20.8304C20.867 14.4499 20.8854 14.182 20.8854 14C20.8854 13.818 20.867 13.5501 20.8304 13.1964H23.6429ZM20.7425 6.60386L21.3738 7.23522C21.5133 7.37469 21.5133 7.60083 21.3738 7.74029L19.385 9.72902C19.1609 9.45301 18.9844 9.25065 18.8557 9.12192C18.727 8.99321 18.5246 8.81679 18.2486 8.59261L20.2374 6.60386C20.3768 6.4644 20.603 6.4644 20.7424 6.60386M7.76259 6.60386L9.75132 8.59261C9.47531 8.81679 9.27295 8.99321 9.14422 9.12192C9.01551 9.25065 8.83908 9.45301 8.61491 9.72902L6.62616 7.74029C6.4867 7.60083 6.4867 7.37467 6.62616 7.23522L7.25752 6.60386C7.39699 6.4644 7.62313 6.4644 7.76259 6.60386ZM14.4464 4C14.6437 4 14.8036 4.15989 14.8036 4.35714V7.16964C14.4499 7.13297 14.182 7.11464 14 7.11464C13.818 7.11464 13.5501 7.13297 13.1964 7.16964V4.35714C13.1964 4.15989 13.3563 4 13.5536 4H14.4464Z" fill="#A2C1EE"/>
</g>
<defs>
<filter id="filter0_d_270_94" x="0" y="0" width="28" height="28" filterUnits="userSpaceOnUse" color-interpolation-filters="sRGB">
<feFlood flood-opacity="0" result="BackgroundImageFix"/>
<feColorMatrix in="SourceAlpha" type="matrix" values="0 0 0 0 0 0 0 0 0 0 0 0 0 0 0 0 0 0 127 0" result="hardAlpha"/>
<feOffset/>
<feGaussianBlur stdDeviation="2"/>
<feComposite in2="hardAlpha" operator="out"/>
<feColorMatrix type="matrix" values="0 0 0 0 1 0 0 0 0 1 0 0 0 0 1 0 0 0 0.25 0"/>
<feBlend mode="normal" in2="BackgroundImageFix" result="effect1_dropShadow_270_94"/>
<feBlend mode="normal" in="SourceGraphic" in2="effect1_dropShadow_270_94" result="shape"/>
</filter>
</defs>
</svg>