<svg width="21" height="20" viewBox="0 0 21 20" fill="none" xmlns="http://www.w3.org/2000/svg">
<path d="M9.8903 15.3061C9.8903 15.6309 10.0032 15.9423 10.2041 16.172C10.405 16.4016 10.6775 16.5306 10.9617 16.5306C11.2458 16.5306 11.5183 16.4016 11.7192 16.172C11.9202 15.9423 12.033 15.6309 12.033 15.3061C12.033 14.9814 11.9202 14.6699 11.7192 14.4403C11.5183 14.2106 11.2458 14.0816 10.9617 14.0816C10.6775 14.0816 10.405 14.2106 10.2041 14.4403C10.0032 14.6699 9.8903 14.9814 9.8903 15.3061ZM10.2474 7.55102V12.2449C10.2474 12.3571 10.3278 12.449 10.426 12.449H11.4974C11.5956 12.449 11.6759 12.3571 11.6759 12.2449V7.55102C11.6759 7.43878 11.5956 7.34694 11.4974 7.34694H10.426C10.3278 7.34694 10.2474 7.43878 10.2474 7.55102ZM20.8651 18.7755L11.5799 0.408163C11.4416 0.135204 11.2027 0 10.9617 0C10.7206 0 10.4796 0.135204 10.3434 0.408163L1.05821 18.7755C0.783674 19.3214 1.1274 20 1.67648 20H20.2469C20.7959 20 21.1397 19.3214 20.8651 18.7755ZM3.37728 18.0638L10.9617 3.05867L18.5461 18.0638H3.37728Z" fill="#E25153"/>
</svg>
